<svg width="249" height="56" viewBox="0 0 249 56" fill="none" xmlns="http://www.w3.org/2000/svg">
<path d="M24.9085 13.5254V47.5862C27.3173 47.4385 29.8275 47.3545 32.4083 47.3418L32.3944 18.8586L26.6781 15.8253L26.6699 8.52618L35.477 1V47.3609C35.8538 47.3675 36.2292 47.3754 36.6029 47.3849V33.6247L42.2535 30.7615V16.6815L49.8376 23.111L49.8266 32.9501L45.4986 30.5037L45.3589 47.9066C47.2947 48.0925 49.1451 48.3211 50.8902 48.5879V37.5493L54.1194 39.6777V49.1483C60.0747 50.3145 64.4175 51.9641 66.1787 53.8585C50.0499 48.8848 16.1461 48.8795 0 53.8585C2.1426 51.5537 8.1052 49.6112 16.1458 48.4616L16.1015 19.2012L24.9085 13.5254Z" fill="#53B141"/>
<path d="M91.9375 40.1474H84.3543V25.2884H80.3065V40.1474H72.7233V3H80.3065V18.8837H84.3543V3H91.9375V40.1474ZM103.159 9.50719C102.714 9.50719 102.492 9.74632 102.492 10.2245V32.8716C102.492 33.1449 102.535 33.3412 102.621 33.4608C102.706 33.5803 102.902 33.6401 103.21 33.6401H106.028C106.335 33.6401 106.532 33.5803 106.617 33.4608C106.703 33.3412 106.745 33.1449 106.745 32.8716V10.2245C106.745 9.74632 106.523 9.50719 106.079 9.50719H103.159ZM114.277 34.8699C114.277 35.5872 114.192 36.2618 114.021 36.8938C113.85 37.5257 113.56 38.0807 113.15 38.5589C112.74 39.0371 112.193 39.4214 111.51 39.7118C110.827 40.0022 109.973 40.1473 108.948 40.1473H100.34C99.3157 40.1473 98.4617 40.0022 97.7786 39.7118C97.0954 39.4214 96.5489 39.0371 96.139 38.5589C95.7291 38.0807 95.4387 37.5257 95.2679 36.8938C95.0972 36.2618 95.0117 35.5872 95.0117 34.8699V7.81635C95.0117 6.34752 95.4131 5.1776 96.2158 4.30656C97.0186 3.43552 98.291 3 100.033 3H109.256C110.998 3 112.27 3.43552 113.073 4.30656C113.876 5.1776 114.277 6.34752 114.277 7.81635V34.8699ZM124.576 22.6241V40.1474H117.351V3H125.191L129.239 18.6787L133.286 3H141.177V40.1474H133.952V22.6241L129.239 37.483L124.576 22.6241ZM144.251 3H158.7L159.981 9.91709H151.886V18.73H158.034V25.1347H151.886V33.2303H159.674L158.393 40.1474H144.251V3ZM162.543 3H169.614L173.405 17.9102V3H181.04V40.1474H173.405L169.409 24.6223V40.1474H162.543V3ZM184.114 3H198.563L199.844 9.91709H191.749V18.73H197.897V25.1347H191.749V33.2303H199.537L198.256 40.1474H184.114V3ZM204.251 40.1474L202.919 33.2303H210.912C211.492 33.2303 211.783 32.9741 211.783 32.4617V25.6983C211.783 25.1859 211.68 24.8785 211.475 24.776C211.27 24.6736 210.912 24.6223 210.399 24.6223H206.556C206.01 24.6223 205.489 24.5796 204.994 24.4942C204.498 24.4088 204.054 24.2124 203.661 23.905C203.269 23.5976 202.961 23.1706 202.739 22.6241C202.517 22.0775 202.406 21.3431 202.406 20.4208V7.81635C202.406 6.34752 202.807 5.1776 203.61 4.30656C204.413 3.43552 205.685 3 207.427 3H217.675L218.956 9.91709H210.553C209.938 9.91709 209.631 10.1903 209.631 10.7369V17.5003C209.631 17.876 209.724 18.1322 209.912 18.2688C210.1 18.4055 210.382 18.4738 210.758 18.4738H215.42C216.616 18.4738 217.53 18.7556 218.162 19.3192C218.794 19.8828 219.11 20.8649 219.11 22.2654V34.5112C219.11 36.5607 218.691 38.0125 217.854 38.8664C217.017 39.7203 215.54 40.1474 213.422 40.1474H204.251ZM236.325 3L238.17 9.91709H233.2V40.1474H225.617V9.91709H220.647L222.594 3H236.325Z" fill="#111111"/>
<path d="M90.75 52.3065H89.268V46.8177H92.9831C93.3826 46.8177 93.7214 46.859 93.9998 46.9416C94.2781 47.0241 94.5044 47.1413 94.6789 47.2931C94.8534 47.4449 94.9798 47.628 95.0584 47.8424C95.137 48.0568 95.1762 48.2958 95.1762 48.5594C95.1762 48.7911 95.1436 48.9935 95.0784 49.1666C95.0131 49.3397 94.9252 49.4882 94.8147 49.6121C94.7042 49.7359 94.5757 49.8404 94.4292 49.9256C94.2827 50.0109 94.1283 50.0814 93.9658 50.1374L95.7635 52.3065H94.0297L92.3679 50.2852H90.7501L90.75 52.3065ZM93.6782 48.5514C93.6782 48.4449 93.6642 48.3544 93.6363 48.2798C93.6083 48.2052 93.5597 48.1447 93.4905 48.098C93.4212 48.0514 93.3287 48.0175 93.2128 47.9962C93.097 47.9749 92.9525 47.9642 92.7794 47.9642H90.7501V49.1387H92.7794C92.9525 49.1387 93.097 49.128 93.2128 49.1067C93.3287 49.0854 93.4212 49.0515 93.4905 49.0049C93.5597 48.9583 93.6083 48.8977 93.6363 48.8231C93.6642 48.7485 93.6782 48.658 93.6782 48.5514ZM102.928 52.3065V46.8177H108.485V47.9882H104.45V48.895H108.277V50.0654H104.45V51.136H108.541V52.3065L102.928 52.3065ZM120.484 51.2678H117.424L116.908 52.3065H115.255L118.127 46.8177H119.781L122.653 52.3065H120.999L120.484 51.2678ZM117.955 50.1973H119.96L118.962 48.1759L117.955 50.1973ZM129.654 52.3065V46.8177H131.136V51.1043H135.143V52.3067L129.654 52.3065ZM151.61 52.3065V46.8177H157.166V47.9882H153.132V48.895H156.959V50.0654H153.132V51.136H157.222V52.3065L151.61 52.3065ZM169.812 48.3637C169.708 48.3131 169.571 48.2558 169.401 48.1919C169.23 48.128 169.037 48.0674 168.821 48.0101C168.606 47.9529 168.371 47.9049 168.118 47.8663C167.865 47.8277 167.606 47.8084 167.339 47.8084C167.126 47.8084 166.945 47.8151 166.794 47.8284C166.644 47.8417 166.517 47.859 166.415 47.8803C166.312 47.9016 166.231 47.9262 166.171 47.9542C166.111 47.9822 166.065 48.0108 166.033 48.0401C166.001 48.0694 165.981 48.0987 165.971 48.128C165.962 48.1573 165.957 48.1839 165.957 48.2079C165.957 48.2877 165.997 48.3577 166.077 48.4176C166.157 48.4775 166.266 48.5308 166.405 48.5774C166.543 48.624 166.704 48.6679 166.888 48.7092C167.072 48.7505 167.267 48.7931 167.473 48.837C167.68 48.881 167.893 48.9289 168.112 48.9808C168.332 49.0328 168.545 49.0934 168.752 49.1626C168.958 49.2318 169.153 49.3124 169.337 49.4043C169.521 49.4962 169.682 49.6034 169.82 49.7259C169.959 49.8484 170.068 49.9895 170.148 50.1493C170.228 50.3091 170.268 50.4915 170.268 50.6966C170.268 50.9602 170.221 51.1866 170.128 51.3757C170.034 51.5648 169.91 51.7246 169.754 51.8551C169.598 51.9856 169.418 52.0901 169.213 52.1687C169.008 52.2473 168.793 52.3078 168.568 52.3505C168.343 52.3931 168.115 52.421 167.885 52.4343C167.654 52.4477 167.435 52.4543 167.228 52.4543C166.684 52.4543 166.182 52.4097 165.72 52.3205C165.258 52.2313 164.849 52.1201 164.495 51.9869V50.6767C164.86 50.8791 165.276 51.0375 165.744 51.152C166.211 51.2666 166.711 51.3238 167.244 51.3238C167.558 51.3238 167.814 51.3072 168.013 51.2739C168.211 51.2406 168.366 51.198 168.478 51.1461C168.59 51.0941 168.666 51.0375 168.706 50.9763C168.746 50.915 168.766 50.8564 168.766 50.8005C168.766 50.7126 168.726 50.6361 168.646 50.5708C168.566 50.5056 168.457 50.4483 168.318 50.399C168.18 50.3498 168.019 50.3045 167.835 50.2632C167.651 50.2219 167.456 50.1807 167.25 50.1394C167.043 50.0981 166.831 50.0535 166.612 50.0056C166.394 49.9576 166.182 49.901 165.975 49.8358C165.769 49.7705 165.574 49.6946 165.39 49.6081C165.206 49.5215 165.045 49.419 164.907 49.3005C164.768 49.182 164.659 49.0448 164.579 48.889C164.499 48.7332 164.459 48.5528 164.459 48.3478C164.459 48.1054 164.502 47.8964 164.587 47.7206C164.672 47.5448 164.788 47.395 164.933 47.2712C165.078 47.1474 165.246 47.0468 165.436 46.9696C165.626 46.8924 165.827 46.8324 166.037 46.7898C166.248 46.7472 166.461 46.7179 166.676 46.7019C166.892 46.686 167.097 46.678 167.292 46.678C167.505 46.678 167.724 46.6886 167.949 46.7099C168.174 46.7312 168.395 46.7612 168.614 46.7998C168.832 46.8384 169.043 46.883 169.247 46.9336C169.451 46.9842 169.639 47.0375 169.812 47.0934L169.812 48.3637ZM180.848 48.0122V52.3065H179.366V48.0122H177.037V46.8178H183.181V48.0122H180.848ZM194.353 51.2678H191.293L190.777 52.3065H189.123L191.996 46.8177H193.649L196.522 52.3065H194.868L194.353 51.2678ZM191.824 50.1973H193.829L192.831 48.1759L191.824 50.1973ZM206.599 48.0122V52.3065H205.117V48.0122H202.788V46.8178H208.932V48.0122H206.599ZM216.013 52.3065V46.8177H221.569V47.9882H217.535V48.895H221.362V50.0654H217.535V51.136H221.625V52.3065L216.013 52.3065Z" fill="#111111"/>
</svg>
