<svg width="67" height="53" viewBox="0 0 67 53" fill="none" xmlns="http://www.w3.org/2000/svg">
<path d="M24.9085 12.5254V46.5862C27.3173 46.4385 29.8275 46.3545 32.4083 46.3418L32.3944 17.8586L26.6781 14.8253L26.6699 7.52618L35.477 0V46.3609C35.8538 46.3675 36.2292 46.3754 36.6029 46.3849V32.6247L42.2535 29.7615V15.6815L49.8376 22.111L49.8266 31.9501L45.4986 29.5037L45.3589 46.9066C47.2947 47.0925 49.1451 47.3211 50.8902 47.5879V36.5493L54.1194 38.6777V48.1483C60.0747 49.3145 64.4175 50.9641 66.1787 52.8585C50.0499 47.8848 16.1461 47.8795 0 52.8585C2.1426 50.5537 8.1052 48.6112 16.1458 47.4616L16.1015 18.2012L24.9085 12.5254Z" fill="#53B141"/>
</svg>
